<?xml version="1.0" encoding="UTF-8"?>
<svg version="1.1" xmlns="http://www.w3.org/2000/svg" width="512" height="512">
<path d="M0 0 C1.05703125 0.37382813 2.1140625 0.74765625 3.203125 1.1328125 C25.83422413 9.89510985 44.67891409 26.60462865 54.828125 48.81201172 C61.75275314 64.72314136 63.45790191 80.74053598 63.38818359 97.90820312 C63.39226219 99.6269514 63.3976112 101.34569705 63.40411377 103.06443787 C63.41764026 107.67812886 63.41255025 112.2916157 63.40297651 116.90530968 C63.39530294 121.76732245 63.40244664 126.62931944 63.40713501 131.49133301 C63.41257039 139.65131725 63.40545953 147.81121964 63.39111328 155.97119141 C63.37479109 165.36263417 63.38008117 174.75388143 63.3965925 184.14531946 C63.41027094 192.25458256 63.41209614 200.3637873 63.40427649 208.47305822 C63.39963472 213.29624472 63.39887752 218.11933977 63.40888596 222.94252014 C63.41764664 227.48013884 63.4113704 232.01750912 63.39420319 236.55510139 C63.39028635 238.20567986 63.39128818 239.85627979 63.39799118 241.50684929 C63.49469322 267.77033642 57.08892528 293.26348312 38.44091797 312.61816406 C36.97522108 314.09455946 35.49218276 315.55043618 34 317 C33.23816406 317.75925781 32.47632813 318.51851563 31.69140625 319.30078125 C23.11418599 327.40586094 13.34056775 332.77617777 2.375 336.875 C1.2305542 337.30437866 1.2305542 337.30437866 0.06298828 337.74243164 C-21.83248842 345.51021272 -47.92384427 344.1125733 -69.0703125 334.53515625 C-79.08944397 329.28513136 -87.97068995 323.00276688 -96 315 C-97.24716797 313.78763672 -97.24716797 313.78763672 -98.51953125 312.55078125 C-117.98134879 292.55084894 -123.4978546 266.09754611 -123.38818359 239.09179688 C-123.39226219 237.3730486 -123.3976112 235.65430295 -123.40411377 233.93556213 C-123.41764026 229.32187114 -123.41255025 224.7083843 -123.40297651 220.09469032 C-123.39530294 215.23267755 -123.40244664 210.37068056 -123.40713501 205.50866699 C-123.41257039 197.34868275 -123.40545953 189.18878036 -123.39111328 181.02880859 C-123.37479109 171.63736583 -123.38008117 162.24611857 -123.3965925 152.85468054 C-123.41027094 144.74541744 -123.41209614 136.6362127 -123.40427649 128.52694178 C-123.39963472 123.70375528 -123.39887752 118.88066023 -123.40888596 114.05747986 C-123.41764664 109.51986116 -123.4113704 104.98249088 -123.39420319 100.44489861 C-123.39028635 98.79432014 -123.39128818 97.14372021 -123.39799118 95.49315071 C-123.50400933 66.69948156 -115.31464668 41.99695996 -95 21 C-85.37148145 11.81042862 -74.11662255 5.34162015 -61.75 0.625 C-61.12520752 0.38628174 -60.50041504 0.14756348 -59.85668945 -0.09838867 C-41.39751594 -6.7537042 -18.4249503 -6.61741173 0 0 Z M-68 42 C-69.2375 42.92425781 -69.2375 42.92425781 -70.5 43.8671875 C-81.88859576 53.58308326 -87.61854594 67.57046783 -90 82 C-90.41035903 87.73581619 -90.42179056 93.44659016 -90.40405273 99.19458008 C-90.40976844 100.88480578 -90.4167373 102.57502763 -90.42485046 104.26524353 C-90.4426664 108.81917831 -90.44163522 113.37291917 -90.43590808 117.92687821 C-90.43279878 121.74598574 -90.43892805 125.56505694 -90.44494683 129.38415927 C-90.45895307 138.40367975 -90.45746393 147.42310544 -90.44604492 156.44262695 C-90.43457301 165.70794446 -90.44863275 174.97297218 -90.4754414 184.23825151 C-90.4976867 192.2293763 -90.50421582 200.22041072 -90.49836498 208.21156424 C-90.49501459 212.96830579 -90.49728135 217.72486178 -90.51461601 222.48157692 C-90.53022426 226.9592782 -90.52597796 231.43655454 -90.50731087 235.91423988 C-90.50366273 237.54427517 -90.50662112 239.17434293 -90.51719666 240.80434799 C-90.63136018 259.87738253 -86.82555583 276.51166914 -73.265625 290.72265625 C-72.14414063 291.84994141 -72.14414063 291.84994141 -71 293 C-70.39671875 293.63808594 -69.7934375 294.27617187 -69.171875 294.93359375 C-58.04675599 305.79267731 -42.84015814 309.38485997 -27.796875 309.29882812 C-11.02770632 308.89625702 2.29581836 301.85368761 14 290 C14.56203125 289.45988281 15.1240625 288.91976563 15.703125 288.36328125 C28.5716829 274.91902471 30.45856544 256.47040437 30.40405273 238.80541992 C30.40976844 237.11519422 30.4167373 235.42497237 30.42485046 233.73475647 C30.4426664 229.18082169 30.44163522 224.62708083 30.43590808 220.07312179 C30.43279878 216.25401426 30.43892805 212.43494306 30.44494683 208.61584073 C30.45895307 199.59632025 30.45746393 190.57689456 30.44604492 181.55737305 C30.43457301 172.29205554 30.44863275 163.02702782 30.4754414 153.76174849 C30.4976867 145.7706237 30.50421582 137.77958928 30.49836498 129.78843576 C30.49501459 125.03169421 30.49728135 120.27513822 30.51461601 115.51842308 C30.53022426 111.0407218 30.52597796 106.56344546 30.50731087 102.08576012 C30.50366273 100.45572483 30.50662112 98.82565707 30.51719666 97.19565201 C30.63583087 77.37570958 26.11999532 59.71427122 12 45 C4.71061784 38.52628525 -2.81298121 34.18788207 -12 31 C-13.155 30.5875 -14.31 30.175 -15.5 29.75 C-34.61442999 25.65405072 -52.67407611 29.93892962 -68 42 Z " fill="#000000" transform="translate(286,4)"/>
<path d="M0 0 C5.29556191 2.95520121 7.77775171 6.45686263 9.7734375 12.1640625 C10.40379148 15.80026138 10.59429019 19.41888483 10.7734375 23.1015625 C13.06614993 55.67567548 27.11562882 84.1822299 51.7734375 105.7578125 C77.00609318 125.99650507 108.33743805 135.9651207 140.69677734 132.65087891 C172.08025402 128.96094286 201.14084146 113.01535402 220.7734375 88.1640625 C235.73192884 67.94524727 244.19057937 44.66649812 245.2109375 19.6015625 C245.5852893 12.57206752 246.1810278 7.45575012 251.5 2.58203125 C255.74347605 -0.4864584 259.45489826 -1.52812735 264.671875 -1.1875 C271.02045421 -0.12547002 274.11430239 3.25036678 277.7734375 8.1640625 C284.70438989 22.02596728 276.67800744 47.9352585 272.21484375 61.9375 C259.08041103 101.27690585 232.15876422 132.34239851 195.40869141 151.59008789 C180.01070841 159.25518349 161.21982876 166.1640625 143.7734375 166.1640625 C143.7734375 178.0440625 143.7734375 189.9240625 143.7734375 202.1640625 C152.49332445 202.00702234 152.49332445 202.00702234 161.2121582 201.80371094 C173.36354842 201.6942946 181.88323484 204.28692094 190.67578125 212.80078125 C193.52735322 216.01344613 195.44928772 219.08366616 196.7734375 223.1640625 C197.30517578 224.79988281 197.30517578 224.79988281 197.84765625 226.46875 C199.25888532 232.29495599 199.10865802 238.23724973 199.08911133 244.20043945 C199.08593844 246.2259648 199.10951926 248.2500436 199.13476562 250.27539062 C199.14176716 264.34147973 199.14176716 264.34147973 194.23828125 269.90625 C190.14311482 272.94358572 188.07520728 274.2865405 183.01763916 274.31123352 C182.0138623 274.31838882 181.01008545 274.32554413 179.97589111 274.33291626 C178.87041931 274.33560516 177.76494751 274.33829407 176.62597656 274.34106445 C175.4648938 274.34763565 174.30381104 274.35420685 173.10754395 274.36097717 C169.25138287 274.38074584 165.3952608 274.39238069 161.5390625 274.40234375 C159.56718586 274.40845704 159.56718586 274.40845704 157.55547333 274.41469383 C151.31589587 274.43374801 145.07633025 274.44797751 138.83672929 274.4563058 C131.63732601 274.466074 124.43823054 274.49238124 117.23893571 274.53280669 C111.67281531 274.56298724 106.10678304 274.57777657 100.54058242 274.58108681 C97.21696297 274.58343552 93.89374715 274.59434831 90.57019806 274.61754799 C86.85937383 274.64184091 83.14935562 274.64099182 79.43847656 274.6340332 C77.79241425 274.65324829 77.79241425 274.65324829 76.11309814 274.67285156 C69.99859645 274.63102335 66.4216117 274.25689293 61.7734375 270.1640625 C55.76262981 263.66589202 56.52860554 257.27576095 56.47827148 248.7590332 C56.46125892 246.76424984 56.41740986 244.76975318 56.37304688 242.77539062 C56.29108247 230.12134672 58.18822673 219.48518584 67.26171875 210.26171875 C74.22934639 204.44272024 81.33038451 202.02568499 90.2890625 202.06640625 C91.97950684 202.07015259 91.97950684 202.07015259 93.70410156 202.07397461 C95.12948242 202.08307861 96.55486328 202.09218262 98.0234375 202.1015625 C102.5609375 202.1221875 107.0984375 202.1428125 111.7734375 202.1640625 C111.7734375 190.2840625 111.7734375 178.4040625 111.7734375 166.1640625 C106.8234375 165.5040625 101.8734375 164.8440625 96.7734375 164.1640625 C58.58234421 156.31901999 23.70438491 133.09640369 1.99609375 100.66796875 C-13.77454006 76.08863801 -23.08365513 49.5458317 -23.6015625 20.1640625 C-23.62774658 19.26703613 -23.65393066 18.37000977 -23.6809082 17.44580078 C-23.69517819 11.82976914 -22.99286984 8.60513788 -19.2265625 4.1640625 C-13.62149128 -0.89417251 -7.26642378 -2.72809595 0 0 Z M89.7734375 235.1640625 C89.7734375 237.4740625 89.7734375 239.7840625 89.7734375 242.1640625 C114.8534375 242.1640625 139.9334375 242.1640625 165.7734375 242.1640625 C165.7734375 239.8540625 165.7734375 237.5440625 165.7734375 235.1640625 C140.6934375 235.1640625 115.6134375 235.1640625 89.7734375 235.1640625 Z " fill="#000000" transform="translate(128.2265625,237.8359375)"/>
</svg>
